<?xml version="1.0" encoding="UTF-8" standalone="no"?>
<svg width="46px" height="35px" viewBox="0 0 46 35" version="1.1" xmlns="http://www.w3.org/2000/svg" xmlns:xlink="http://www.w3.org/1999/xlink">
    <!-- Generator: Sketch 40.3 (33839) - http://www.bohemiancoding.com/sketch -->
    <title>Icon</title>
    <desc>Created with Sketch.</desc>
    <defs></defs>
    <g id="Welcome" stroke="none" stroke-width="1" fill="none" fill-rule="evenodd">
        <g id="Desktop-HD" transform="translate(-40.000000, -27.000000)" fill="#F2F2F2">
            <g id="Nav">
                <g id="Icon" transform="translate(40.000000, 19.000000)">
                    <g id="Group">
                        <path d="M45.3170769,9.33216216 L45.2993846,9.19386486 C45.2816923,8.86497297 44.9992051,8.61278378 44.668359,8.61278378 L44.0597436,8.61278378 C43.7106154,8.61278378 43.4298974,8.88531081 43.4228205,9.2235 C43.3656154,11.2479865 43.0394872,13.0778108 42.4609487,14.6618378 C41.7137436,16.6857432 40.2393846,18.5405541 38.0809231,20.1623514 C37.2883077,20.7637703 36.5988974,21.0455946 35.9206923,21.0455946 C34.8691795,21.0455946 33.8194359,20.3477162 32.4795385,19.4621486 L32.2241795,19.2977027 C30.8082051,18.3621622 28.9599487,17.8043243 27.2797692,17.8043243 C26.3981026,17.8043243 25.5919231,17.9530811 24.8889487,18.2511757 C23.9601026,18.6434054 23.3727179,18.9891486 23.0058974,19.2872432 C22.6266923,18.9885676 22.0440256,18.6434054 21.1110513,18.2511757 C20.4086667,17.9530811 19.6018974,17.8043243 18.7202308,17.8043243 C17.040641,17.8043243 15.203,18.3621622 13.7805385,19.2977027 L13.5222308,19.4621486 C12.1829231,20.3471351 11.1278718,21.0455946 10.0757692,21.0455946 C9.39520513,21.0455946 8.71464103,20.7643514 7.92084615,20.1623514 C5.75825641,18.5405541 4.28566667,16.6863243 3.53551282,14.6618378 C2.9575641,13.0772297 2.6314359,11.2479865 2.57658974,9.2235 C2.56774359,8.88531081 2.28702564,8.61278378 1.94438462,8.61278378 L1.33223077,8.61278378 C0.994307692,8.61278378 0.720076923,8.8887973 0.696487179,9.21768919 L0.685282051,9.36005405 C0.324948718,15.0261757 -0.219974359,23.600027 2.79302564,28.9668919 C3.71479487,30.622973 4.9355641,32.0832297 6.11210256,33.5022297 L6.15692308,33.5603378 C8.75887179,36.6819054 12.0154359,39.2096081 15.5845641,40.864527 C15.8587949,40.9917838 19.9008974,42.5182838 23.0041282,42.5182838 L23.1515641,42.5159595 C24.6801795,42.5060811 26.2017179,42.2945676 27.5416154,41.918027 C28.6904359,41.6478243 29.7289744,41.2637297 30.6006154,40.7738784 C34.0930769,39.1177973 37.2900769,36.6237973 39.8342308,33.5603378 L39.8873077,33.5022297 C41.0626667,32.0838108 42.2828462,30.622973 43.2069744,28.9668919 C46.2117179,23.5994459 45.6750513,15.0255946 45.3170769,9.33216216 L45.3170769,9.33216216 Z M30.3493846,25.7837297 C29.8994103,26.8587297 29.3568462,27.6437703 28.6992821,28.1760405 C28.1578974,28.6182432 27.2697436,29.0947297 26.4340769,29.0947297 C26.3013846,29.0947297 26.1669231,29.082527 26.0442564,29.0575405 C25.711641,28.9907162 25.4769231,28.8158108 25.2687436,28.6536892 C25.2150769,28.6135946 25.1608205,28.5723378 25.1083333,28.537473 C24.7344359,28.2858649 24.2862308,28.165 23.8097179,28.036 L23.618641,27.9842838 C23.1727949,27.8651622 22.8313333,27.8651622 22.376641,27.9842838 L22.1902821,28.036 C21.7114103,28.1655811 21.2573077,28.2864459 20.8975641,28.537473 C20.838,28.5729189 20.7866923,28.6135946 20.7288974,28.6536892 C20.5260256,28.8158108 20.2907179,28.9907162 19.9551538,29.0575405 C19.8289487,29.0831081 19.7027436,29.0947297 19.5647436,29.0947297 C18.7296667,29.0947297 17.845641,28.6182432 17.3001282,28.1760405 C16.6407949,27.6437703 16.1041282,26.8581486 15.6482564,25.7837297 C15.4259231,25.2514595 15.4035128,24.7621892 15.5827949,24.3153378 C15.8027692,23.7609865 16.3223333,23.3193649 17.1574103,22.9544459 C18.4389231,22.4000946 19.803,22.1002568 21.3322051,22.0427297 C21.367,22.0380811 21.5291795,22.0380811 21.7491538,22.0380811 L24.2490769,22.0380811 C24.4678718,22.0380811 24.6383077,22.0380811 24.6713333,22.0427297 C26.2005385,22.1008378 27.5610769,22.4000946 28.8484872,22.9544459 C29.6823846,23.3193649 30.2001795,23.7609865 30.4254615,24.3153378 C30.5929487,24.7621892 30.5782051,25.2514595 30.3493846,25.7837297 L30.3493846,25.7837297 Z" id="Shape"></path>
                    </g>
                </g>
            </g>
        </g>
    </g>
</svg>